PathFileType	4	(X/Y/Z)	/Users/niels/Desktop/University/Third Semester/Perception and Action/Exam/Gymnastics Motion Tracking/Code for Gym Tracking/Analyzed Data/Webcam_Backflip/id6_1_baseline_Sports2D/id6_1_baseline_Sports2D_px_person00.trc
DataRate	CameraRate	NumFrames	NumMarkers	Units	OrigDataRate	OrigDataStartFrame	OrigNumFrames
29.806451612903224	29.806451612903224	12	22	m	29.806451612903224	0	155
Frame#	Time	Hip			RHip			RKnee			RAnkle			RBigToe			RSmallToe			RHeel			LHip			LKnee			LAnkle			LBigToe			LSmallToe			LHeel			Neck			Head			Nose			RShoulder			RElbow			RWrist			LShoulder			LElbow			LWrist		
		X1	Y1	Z1	X2	Y2	Z2	X3	Y3	Z3	X4	Y4	Z4	X5	Y5	Z5	X6	Y6	Z6	X7	Y7	Z7	X8	Y8	Z8	X9	Y9	Z9	X10	Y10	Z10	X11	Y11	Z11	X12	Y12	Z12	X13	Y13	Z13	X14	Y14	Z14	X15	Y15	Z15	X16	Y16	Z16	X17	Y17	Z17	X18	Y18	Z18	X19	Y19	Z19	X20	Y20	Z20	X21	Y21	Z21	X22	Y22	Z22
0	0.0	0.9818021261620917	-0.5872358622259766	0.0	0.9804648359112952	-0.5859020280049196	0.0	0.9871634335950296	-0.6849247051647329	0.0	0.9737787049182484	-0.7826309858649225	0.0	0.9978642858534847	-0.801375211156185	0.0	0.9884948776756125	-0.8067261802093895	0.0	0.9670913455991454	-0.7986895144789965	0.0	0.9791298738126928	-0.5845657128769699	0.0	0.9844879628599805	-0.6822534347181713	0.0	0.9724400087928963	-0.7772833048164389	0.0	1.0032271324739468	-0.8000451207305338	0.0	0.9951961387317823	-0.7960297324000223	0.0	0.9630732282753007	-0.7920024386424739	0.0	1.012583408007028	-0.4587328353710513	0.0	1.0406598545135892	-0.39314255834949524	0.0	1.048708023324676	-0.4266072791723287	0.0	1.0085641482873926	-0.470795913652502	0.0	0.9845098985599899	-0.5257414094256437	0.0	0.9524326578263738	-0.5753216317462121	0.0	1.0032143125738289	-0.4694560267778157	0.0	0.98184368046839	-0.5217400400303593	0.0	0.9578114744544709	-0.5699714762589781	0.0
1	0.03354978354978355	0.9819570318927492	-0.5852973917695823	0.0	0.980544824703349	-0.5852236118157588	0.0	0.9875136955263365	-0.6849995383547381	0.0	0.9735966857931992	-0.7822796279562457	0.0	1.0016305864262007	-0.8003506904985831	0.0	0.9931420340842796	-0.8050833924909516	0.0	0.9658308885352404	-0.7971018076907187	0.0	0.9801664604222282	-0.5837430662538595	0.0	0.9854513684965222	-0.6829168727490343	0.0	0.9732101458065633	-0.7764111543046104	0.0	1.0057061251304713	-0.7987362031725391	0.0	0.998971078204682	-0.7949344235385966	0.0	0.9639426931144636	-0.7909160037924989	0.0	1.012549105378521	-0.4561640968013098	0.0	1.0429202650659823	-0.3925962274038546	0.0	1.0495618216284022	-0.4266982759986422	0.0	1.0087159996393666	-0.46797552355609107	0.0	0.9773675598900686	-0.514317870221168	0.0	0.9415062375745432	-0.5572417301549525	0.0	1.002203881839618	-0.46627093945513554	0.0	0.9745496672904432	-0.5106538021162486	0.0	0.9440646057873977	-0.55332722272171	0.0
2	0.0670995670995671	0.9818700257626033	-0.5832002452192175	0.0	0.9803868006313367	-0.5840060734294313	0.0	0.9879287381778725	-0.6845283074369326	0.0	0.9734436987989032	-0.7813643796387241	0.0	1.0047547106615915	-0.7989794674921478	0.0	0.9969382715155742	-0.803223401842655	0.0	0.964785930930847	-0.7951534463583725	0.0	0.9807550632620369	-0.5823060550942021	0.0	0.9862729384064652	-0.682882903737215	0.0	0.9738474166552967	-0.7752092473013047	0.0	1.0073668814121848	-0.7971483482126273	0.0	1.0017837344566827	-0.7935027400028021	0.0	0.9645437869599859	-0.7893647239834842	0.0	1.0122861433605443	-0.4536915431369829	0.0	1.0451353790203277	-0.39152003157070997	0.0	1.0503609598678565	-0.42615017215350187	0.0	1.0087512362528053	-0.4648592042489259	0.0	0.9708042438939063	-0.5029950813939925	0.0	0.931374822079205	-0.5391051414170996	0.0	1.0010937365220731	-0.4629750463545089	0.0	0.9681732598514857	-0.4998243577319192	0.0	0.9320362611596859	-0.5373443340160531	0.0
3	0.10064935064935066	0.9812959705451819	-0.5808103100949233	0.0	0.9797840331848797	-0.5819723700983823	0.0	0.9885552177777295	-0.6831868724723456	0.0	0.9733680693580531	-0.7795666199242243	0.0	1.0070823421594721	-0.7970836505789644	0.0	0.9996135056667714	-0.8010169914731827	0.0	0.9640713230601087	-0.7926132051291434	0.0	0.9805747878905823	-0.5799608251486624	0.0	0.9869834688659336	-0.6817162563538034	0.0	0.9742954800511697	-0.773485570165017	0.0	1.0079947363309234	-0.7950298023183257	0.0	1.0033876689402712	-0.7914927571341789	0.0	0.9646802658258965	-0.7870716077731976	0.0	1.0117447204493193	-0.45135316429444955	0.0	1.0472406108146315	-0.38978164870596493	0.0	1.05110895907583	-0.4247536234570265	0.0	1.0086534183774751	-0.4614186474939989	0.0	0.9651757862165944	-0.4920654592923422	0.0	0.9225064664046113	-0.5212098936573434	0.0	0.9999504760862595	-0.4595579203477373	0.0	0.9632695622327605	-0.48982320357211173	0.0	0.9228079143416028	-0.5228583772175531	0.0
4	0.1341991341991342	0.9800426768001662	-0.5780820928510361	0.0	0.9785611189556064	-0.5791695408455826	0.0	0.9895918993419882	-0.6808867001995949	0.0	0.9734209846220906	-0.7768691776376867	0.0	1.008864584082098	-0.7946551474837421	0.0	1.0013943586710614	-0.7984012537151415	0.0	0.9636939584077573	-0.7894557105158152	0.0	0.9795030278869139	-0.5768311570029406	0.0	0.9877715147280359	-0.6793258827731901	0.0	0.9745779343630798	-0.7712106428813718	0.0	1.0079944556348126	-0.7922250069060155	0.0	1.004201981612826	-0.7887821742760738	0.0	0.9643497525484089	-0.784032560365388	0.0	1.0110304044642198	-0.4491569292777222	0.0	1.049138302345152	-0.38765960552926926	0.0	1.0518563454184324	-0.42275102565924694	0.0	1.008494693133256	-0.4579199970643904	0.0	0.9605321290965784	-0.48205056390154655	0.0	0.9149271881236929	-0.5042639164213134	0.0	0.9989786069723442	-0.45617425351807084	0.0	0.9598776969397824	-0.48146232544596285	0.0	0.9165596558227671	-0.5107800086375214	0.0
5	0.16774891774891776	0.9779846488887788	-0.5751561745770077	0.0	0.976538269571973	-0.575931638945484	0.0	0.9912305503425513	-0.6776640910300467	0.0	0.973609979486837	-0.7733846582037472	0.0	1.0103620027243945	-0.7916595938561944	0.0	1.002596083837064	-0.7952508601668747	0.0	0.9635680407218479	-0.7857791945318461	0.0	0.9775234320334788	-0.5733823816950296	0.0	0.9889112277627757	-0.6758715567946629	0.0	0.9747396016158845	-0.7684130447655516	0.0	1.0079193088297538	-0.7887122398030448	0.0	1.0047604634031753	-0.7853461542986533	0.0	0.9637536269056088	-0.7804299920150354	0.0	1.0102855354425582	-0.4472460761283998	0.0	1.0507267682950858	-0.38568902729196103	0.0	1.0526304392413381	-0.42064667828069174	0.0	1.0083422193714147	-0.45485460886324164	0.0	0.9567298070828656	-0.4737013807007445	0.0	0.908394188345201	-0.48946176276741166	0.0	0.9983824417220688	-0.45323235363444336	0.0	0.9575545803067267	-0.47541592319330583	0.0	0.9125679504009435	-0.5017952461233539	0.0
6	0.2012987012987013	0.9750782455778934	-0.5723888303232213	0.0	0.9735819494313405	-0.5728025146207132	0.0	0.9936130087169959	-0.6736741303827487	0.0	0.9738979899745223	-0.7692479743311724	0.0	1.0116730292782192	-0.787971068914567	0.0	1.003460972373334	-0.7914181544365979	0.0	0.9635560603568094	-0.7816939442551085	0.0	0.9746604604590348	-0.5702405000732257	0.0	0.9907108703753605	-0.6716707590968881	0.0	0.9748283614506249	-0.7650987207563598	0.0	1.0081076506657325	-0.7845753744358336	0.0	1.0053647699237676	-0.7812511303490788	0.0	0.9631420205913767	-0.7764631137504584	0.0	1.0096242918914018	-0.44598462602173505	0.0	1.05195464745586	-0.38449214662307446	0.0	1.0533984554723155	-0.41905503355370516	0.0	1.0082290823729008	-0.45280673149839085	0.0	0.9536313095156121	-0.46787166221140924	0.0	0.902704109928814	-0.4783791582157962	0.0	0.9982572720758194	-0.451317694082389	0.0	0.9555909811534555	-0.4719008496815615	0.0	0.9095466476314515	-0.49612492143426096	0.0
7	0.23484848484848486	0.9713948935210194	-0.5703215094482922	0.0	0.9696851638546198	-0.5704501067525359	0.0	0.9967825845487923	-0.6692734585045005	0.0	0.9742460625228284	-0.7646841750124309	0.0	1.012796818719405	-0.7835671790324401	0.0	1.0041653605961558	-0.7869521827117161	0.0	0.9635560904822297	-0.7773365095512994	0.0	0.9710067169301494	-0.5680364429296156	0.0	0.9934096248795765	-0.6671677699082347	0.0	0.9749284382118233	-0.7612788386129942	0.0	1.0086338848131455	-0.7799718485335765	0.0	1.0060842006286541	-0.77667338556775	0.0	0.9626650923361126	-0.7722712965373938	0.0	1.0091450633672252	-0.44591234945860475	0.0	1.0528380236650272	-0.38466169461445593	0.0	1.0540931405282068	-0.4186263489901845	0.0	1.0081819526989213	-0.4523560724967716	0.0	0.9511457314698827	-0.4654028747049463	0.0	0.8977923857303579	-0.4726878138627762	0.0	0.9985857286248283	-0.4510132047800549	0.0	0.9533857386180035	-0.47089049756376716	0.0	0.9063368449820484	-0.4938017991941728	0.0
8	0.2683982683982684	0.9671417806078937	-0.569606349114262	0.0	0.9650160519454524	-0.5695876500982849	0.0	1.0005959264694966	-0.6650538417876167	0.0	0.9746284271955121	-0.7601100247712828	0.0	1.0136889973847545	-0.7787747561238161	0.0	1.004779815653466	-0.7822495054064934	0.0	0.9635467818959939	-0.7730045085425276	0.0	0.9667610394518187	-0.5673600289366453	0.0	0.9969950716362664	-0.6629366609854868	0.0	0.9751425129688526	-0.7571309102791334	0.0	1.0093782671209028	-0.7752358072579999	0.0	1.0068645071861162	-0.7719875138349543	0.0	0.9623592032477087	-0.7680714162887385	0.0	1.0089339313609198	-0.4476079059789485	0.0	1.0533820572914456	-0.3866982624365021	0.0	1.0546111699069334	-0.4199344922652669	0.0	1.0081732594992407	-0.4540449307322152	0.0	0.9491811624969608	-0.4670638731050943	0.0	0.8937230069304751	-0.473849884991883	0.0	0.9992874304140438	-0.4527968398229765	0.0	0.9507873743407341	-0.47262139216842947	0.0	0.9025534727378628	-0.49520976521630755	0.0
9	0.30194805194805197	0.9626422177064721	-0.5709056553857624	0.0	0.9599279604893298	-0.5709037176862899	0.0	1.004679965381152	-0.6617989117400512	0.0	0.9750217841190089	-0.7561796706562902	0.0	1.0142748355806033	-0.7743605356053733	0.0	1.005274650590564	-0.7780530882422938	0.0	0.9635695535564816	-0.769270540672836	0.0	0.9622487392869944	-0.5687830096770005	0.0	1.0011200699738856	-0.6597061202855121	0.0	0.9755235846682299	-0.7531922784610822	0.0	1.010145178957227	-0.7710558819953545	0.0	1.0076416693208443	-0.7678826899734065	0.0	0.9622133036305817	-0.7643633300063785	0.0	1.009003414391779	-0.45152113643919967	0.0	1.053435847159176	-0.3909605647052213	0.0	1.054765612140626	-0.4233533799129881	0.0	1.0080525549292727	-0.45834153306189496	0.0	0.9477425952207122	-0.47349518132683627	0.0	0.8908631955905936	-0.48289191574164436	0.0	1.0002134283361728	-0.45703158382970727	0.0	0.9481578337351692	-0.4777455267619652	0.0	0.8988173145158598	-0.501257724222275	0.0
10	0.3354978354978355	0.9582745741662192	-0.5747694150759676	0.0	0.9549183372051626	-0.574963394183489	0.0	1.0085448656188354	-0.6603910501289534	0.0	0.9754053326514937	-0.7537589231426349	0.0	1.0144627264395993	-0.7714179910050573	0.0	1.0055706613656514	-0.7753407342081514	0.0	0.9637031349557276	-0.7669451519472392	0.0	0.9578903933516411	-0.5728342194810547	0.0	1.005238649573422	-0.6583545374907965	0.0	0.9760377447017785	-0.7504276733939206	0.0	1.0107873141095376	-0.7684904627161764	0.0	1.0083727870634245	-0.7653663616989992	0.0	0.9622206824436346	-0.7619826733273692	0.0	1.0092034699386905	-0.45783517722205047	0.0	1.0526065559131648	-0.3975693398327837	0.0	1.054273796751864	-0.4290139426028363	0.0	1.0075842786632216	-0.4655339109823414	0.0	0.9470723031349401	-0.4851046181290401	0.0	0.8900748159639059	-0.5001461868837765	0.0	1.001079933425282	-0.4639305279061751	0.0	0.946205091706197	-0.4871003904130385	0.0	0.8966310449059463	-0.5130916780703368	0.0
11	0.36904761904761907	0.9543829962606942	-0.5815194751899228	0.0	0.9505299908916194	-0.5820881678821311	0.0	1.0117961118381906	-0.6616917995691453	0.0	0.9757754945645065	-0.7538081966269867	0.0	1.0141358281097121	-0.7710876661201472	0.0	1.0055180134038262	-0.7751006811255268	0.0	0.9640317137493637	-0.7668974778117004	0.0	0.9540849901204794	-0.5798751513956828	0.0	1.008847249019649	-0.659797808224444	0.0	0.9765804061546918	-0.7500637365648446	0.0	1.0112041652963712	-0.7686954369779867	0.0	1.0089219097119675	-0.7655277599377358	0.0	0.9623904719983395	-0.7619250198353088	0.0	1.0091746125898096	-0.46640707164694506	0.0	1.0503299931639305	-0.40633553630525093	0.0	1.0527935486789401	-0.4368140605426339	0.0	1.006506707432702	-0.47558866382506937	0.0	0.9476818852679951	-0.5018472909540016	0.0	0.892752292228184	-0.5249384355159914	0.0	1.001424967197941	-0.47344124433162743	0.0	0.9457677947588353	-0.5012774208488767	0.0	0.8980388094392379	-0.5314319304093347	0.0
